# Blender v2.83.0 OBJ File: 'kule.blend'
# www.blender.org
mtllib collisionSilindir.mtl
v -0.512701 -13.572085 -7.345539
v -0.512701 13.572085 -7.345539
v 0.930194 -13.572085 -7.304419
v 0.930194 13.572085 -7.304419
v 2.337343 -13.572085 -6.982595
v 2.337343 13.572085 -6.982595
v 3.654668 -13.572085 -6.392434
v 3.654668 13.572085 -6.392434
v 4.831546 -13.572085 -5.556614
v 4.831546 13.572085 -5.556614
v 5.822752 -13.572085 -4.507257
v 5.822752 13.572085 -4.507257
v 6.590191 -13.572085 -3.284690
v 6.590191 13.572085 -3.284690
v 7.104373 -13.572085 -1.935893
v 7.104373 13.572085 -1.935893
v 7.345539 -13.572085 -0.512701
v 7.345539 13.572085 -0.512701
v 7.304420 -13.572085 0.930193
v 7.304420 13.572085 0.930193
v 6.982595 -13.572085 2.337341
v 6.982595 13.572085 2.337341
v 6.392434 -13.572085 3.654668
v 6.392434 13.572085 3.654668
v 5.556614 -13.572085 4.831546
v 5.556614 13.572085 4.831546
v 4.507257 -13.572085 5.822752
v 4.507257 13.572085 5.822752
v 3.284688 -13.572085 6.590192
v 3.284688 13.572085 6.590192
v 1.935891 -13.572085 7.104374
v 1.935891 13.572085 7.104374
v 0.512698 -13.572085 7.345539
v 0.512698 13.572085 7.345539
v -0.930197 -13.572085 7.304419
v -0.930197 13.572085 7.304419
v -2.337346 -13.572085 6.982594
v -2.337346 13.572085 6.982594
v -3.654672 -13.572085 6.392432
v -3.654672 13.572085 6.392432
v -4.831550 -13.572085 5.556612
v -4.831550 13.572085 5.556612
v -5.822754 -13.572085 4.507254
v -5.822754 13.572085 4.507254
v -6.590194 -13.572085 3.284684
v -6.590194 13.572085 3.284684
v -7.104375 -13.572085 1.935887
v -7.104375 13.572085 1.935887
v -7.345540 -13.572085 0.512694
v -7.345540 13.572085 0.512694
v -7.304419 -13.572085 -0.930202
v -7.304419 13.572085 -0.930202
v -6.982593 -13.572085 -2.337350
v -6.982593 13.572085 -2.337350
v -6.392429 -13.572085 -3.654675
v -6.392429 13.572085 -3.654675
v -5.556608 -13.572085 -4.831553
v -5.556608 13.572085 -4.831553
v -4.507250 -13.572085 -5.822758
v -4.507250 13.572085 -5.822758
v -3.284680 -13.572085 -6.590196
v -3.284680 13.572085 -6.590196
v -1.935882 -13.572085 -7.104376
v -1.935882 13.572085 -7.104376
v -0.382268 13.572085 -5.476811
v 0.693550 13.572085 -5.446152
v 1.742715 13.572085 -5.206201
v 2.724909 13.572085 -4.766179
v 3.602386 13.572085 -4.142994
v 4.341425 13.572085 -3.360597
v 4.913625 13.572085 -2.449055
v 5.296998 13.572085 -1.443396
v 5.476810 13.572085 -0.382269
v 5.446152 13.572085 0.693549
v 5.206201 13.572085 1.742714
v 4.766178 13.572085 2.724908
v 4.142994 13.572085 3.602385
v 3.360597 13.572085 4.341424
v 2.449054 13.572085 4.913626
v 1.443394 13.572085 5.296998
v 0.382266 13.572085 5.476810
v -0.693552 13.572085 5.446151
v -1.742718 13.572085 5.206199
v -2.724911 13.572085 4.766176
v -3.602388 13.572085 4.142992
v -4.341427 13.572085 3.360593
v -4.913628 13.572085 2.449049
v -5.296999 13.572085 1.443390
v -5.476811 13.572085 0.382262
v -5.446151 13.572085 -0.693556
v -5.206198 13.572085 -1.742722
v -4.766175 13.572085 -2.724915
v -4.142989 13.572085 -3.602391
v -3.360591 13.572085 -4.341430
v -2.449047 13.572085 -4.913630
v -1.443387 13.572085 -5.297000
v -0.382334 -13.572084 -5.477764
v 0.693671 -13.572084 -5.447100
v 1.743019 -13.572084 -5.207107
v 2.725383 -13.572084 -4.767008
v 3.603012 -13.572084 -4.143715
v 4.342180 -13.572084 -3.361182
v 4.914481 -13.572084 -2.449481
v 5.297920 -13.572084 -1.443648
v 5.477764 -13.572084 -0.382336
v 5.447100 -13.572084 0.693669
v 5.207107 -13.572084 1.743017
v 4.767008 -13.572084 2.725382
v 4.143715 -13.572084 3.603012
v 3.361182 -13.572084 4.342180
v 2.449480 -13.572084 4.914481
v 1.443645 -13.572084 5.297920
v 0.382333 -13.572084 5.477763
v -0.693673 -13.572084 5.447098
v -1.743021 -13.572084 5.207105
v -2.725386 -13.572084 4.767005
v -3.603015 -13.572084 4.143712
v -4.342183 -13.572084 3.361178
v -4.914483 -13.572084 2.449476
v -5.297921 -13.572084 1.443641
v -5.477764 -13.572084 0.382329
v -5.447099 -13.572084 -0.693677
v -5.207105 -13.572084 -1.743025
v -4.767004 -13.572084 -2.725389
v -4.143710 -13.572084 -3.603018
v -3.361176 -13.572084 -4.342185
v -2.449473 -13.572084 -4.914485
v -1.443639 -13.572084 -5.297923
vt 1.000000 0.500000
vt 1.000000 1.000000
vt 0.968750 1.000000
vt 0.968750 0.500000
vt 0.937500 1.000000
vt 0.937500 0.500000
vt 0.906250 1.000000
vt 0.906250 0.500000
vt 0.875000 1.000000
vt 0.875000 0.500000
vt 0.843750 1.000000
vt 0.843750 0.500000
vt 0.812500 1.000000
vt 0.812500 0.500000
vt 0.781250 1.000000
vt 0.781250 0.500000
vt 0.750000 1.000000
vt 0.750000 0.500000
vt 0.718750 1.000000
vt 0.718750 0.500000
vt 0.687500 1.000000
vt 0.687500 0.500000
vt 0.656250 1.000000
vt 0.656250 0.500000
vt 0.625000 1.000000
vt 0.625000 0.500000
vt 0.593750 1.000000
vt 0.593750 0.500000
vt 0.562500 1.000000
vt 0.562500 0.500000
vt 0.531250 1.000000
vt 0.531250 0.500000
vt 0.500000 1.000000
vt 0.500000 0.500000
vt 0.468750 1.000000
vt 0.468750 0.500000
vt 0.437500 1.000000
vt 0.437500 0.500000
vt 0.406250 1.000000
vt 0.406250 0.500000
vt 0.375000 1.000000
vt 0.375000 0.500000
vt 0.343750 1.000000
vt 0.343750 0.500000
vt 0.312500 1.000000
vt 0.312500 0.500000
vt 0.281250 1.000000
vt 0.281250 0.500000
vt 0.250000 1.000000
vt 0.250000 0.500000
vt 0.218750 1.000000
vt 0.218750 0.500000
vt 0.187500 1.000000
vt 0.187500 0.500000
vt 0.156250 1.000000
vt 0.156250 0.500000
vt 0.125000 1.000000
vt 0.125000 0.500000
vt 0.093750 1.000000
vt 0.093750 0.500000
vt 0.062500 1.000000
vt 0.062500 0.500000
vt 0.000000 1.000000
vt 0.031250 1.000000
vt 0.031250 1.000000
vt 0.000000 1.000000
vt 0.031250 0.500000
vt 0.000000 0.500000
vt 0.687500 0.500000
vt 0.718750 0.500000
vt 0.718750 1.000000
vt 0.687500 1.000000
vt 0.437500 1.000000
vt 0.406250 1.000000
vt 0.156250 1.000000
vt 0.125000 1.000000
vt 0.843750 1.000000
vt 0.812500 1.000000
vt 0.562500 1.000000
vt 0.531250 1.000000
vt 0.281250 1.000000
vt 0.250000 1.000000
vt 0.968750 1.000000
vt 0.937500 1.000000
vt 0.656250 1.000000
vt 0.375000 1.000000
vt 0.093750 1.000000
vt 0.781250 1.000000
vt 0.500000 1.000000
vt 0.218750 1.000000
vt 0.906250 1.000000
vt 0.625000 1.000000
vt 0.343750 1.000000
vt 0.062500 1.000000
vt 0.750000 1.000000
vt 0.468750 1.000000
vt 0.187500 1.000000
vt 0.875000 1.000000
vt 0.593750 1.000000
vt 0.312500 1.000000
vt 1.000000 1.000000
vt 0.406250 0.500000
vt 0.437500 0.500000
vt 0.125000 0.500000
vt 0.156250 0.500000
vt 0.812500 0.500000
vt 0.843750 0.500000
vt 0.531250 0.500000
vt 0.562500 0.500000
vt 0.250000 0.500000
vt 0.281250 0.500000
vt 0.937500 0.500000
vt 0.968750 0.500000
vt 0.656250 0.500000
vt 0.375000 0.500000
vt 0.093750 0.500000
vt 0.781250 0.500000
vt 0.500000 0.500000
vt 0.218750 0.500000
vt 0.906250 0.500000
vt 0.625000 0.500000
vt 0.343750 0.500000
vt 0.062500 0.500000
vt 0.750000 0.500000
vt 0.468750 0.500000
vt 0.187500 0.500000
vt 0.875000 0.500000
vt 0.593750 0.500000
vt 0.312500 0.500000
vt 0.031250 0.500000
vt 1.000000 0.500000
vt 0.000000 0.500000
vt 0.000000 0.000000
vt 0.000000 0.000000
vt 0.000000 0.000000
vt 0.000000 0.000000
vt 0.000000 0.000000
vt 0.000000 0.000000
vt 0.000000 0.000000
vt 0.000000 0.000000
vt 0.000000 0.000000
vt 0.000000 0.000000
vt 0.000000 0.000000
vt 0.000000 0.000000
vt 0.000000 0.000000
vt 0.000000 0.000000
vt 0.000000 0.000000
vt 0.000000 0.000000
vt 0.000000 0.000000
vt 0.000000 0.000000
vt 0.000000 0.000000
vt 0.000000 0.000000
vt 0.000000 0.000000
vt 0.000000 0.000000
vt 0.000000 0.000000
vt 0.000000 0.000000
vt 0.000000 0.000000
vt 0.000000 0.000000
vt 0.000000 0.000000
vt 0.000000 0.000000
vt 0.000000 0.000000
vt 0.000000 0.000000
vt 0.000000 0.000000
vt 0.000000 0.000000
vt 0.000000 0.000000
vt 0.000000 0.000000
vt 0.000000 0.000000
vt 0.000000 0.000000
vt 0.000000 0.000000
vt 0.000000 0.000000
vt 0.000000 0.000000
vt 0.000000 0.000000
vt 0.000000 0.000000
vt 0.000000 0.000000
vt 0.000000 0.000000
vt 0.000000 0.000000
vt 0.000000 0.000000
vt 0.000000 0.000000
vt 0.000000 0.000000
vt 0.000000 0.000000
vt 0.000000 0.000000
vt 0.000000 0.000000
vt 0.000000 0.000000
vt 0.000000 0.000000
vt 0.000000 0.000000
vt 0.000000 0.000000
vt 0.000000 0.000000
vt 0.000000 0.000000
vt 0.000000 0.000000
vt 0.000000 0.000000
vt 0.000000 0.000000
vt 0.000000 0.000000
vt 0.000000 0.000000
vt 0.000000 0.000000
vt 0.000000 0.000000
vt 0.000000 0.000000
vn 0.0285 0.0000 -0.9996
vn 0.2229 0.0000 -0.9748
vn 0.4088 0.0000 -0.9126
vn 0.5790 0.0000 -0.8153
vn 0.7270 0.0000 -0.6867
vn 0.8470 0.0000 -0.5317
vn 0.9344 0.0000 -0.3562
vn 0.9859 0.0000 -0.1671
vn 0.9996 0.0000 0.0285
vn 0.9748 0.0000 0.2230
vn 0.9126 0.0000 0.4088
vn 0.8153 0.0000 0.5790
vn 0.6867 0.0000 0.7270
vn 0.5317 0.0000 0.8470
vn 0.3562 0.0000 0.9344
vn 0.1671 0.0000 0.9859
vn -0.0285 0.0000 0.9996
vn -0.2230 0.0000 0.9748
vn -0.4088 0.0000 0.9126
vn -0.5790 0.0000 0.8153
vn -0.7270 0.0000 0.6867
vn -0.8470 0.0000 0.5317
vn -0.9344 0.0000 0.3562
vn -0.9859 0.0000 0.1671
vn -0.9996 0.0000 -0.0285
vn -0.9748 0.0000 -0.2230
vn -0.9126 0.0000 -0.4088
vn -0.8153 0.0000 -0.5790
vn -0.6867 0.0000 -0.7270
vn -0.5317 0.0000 -0.8470
vn 0.0000 1.0000 0.0000
vn -0.3562 0.0000 -0.9344
vn -0.1671 0.0000 -0.9859
vn -0.0000 -1.0000 -0.0000
vn 0.2230 -0.0000 -0.9748
usemtl None
s off
f 1/1/1 2/2/1 4/3/1 3/4/1
f 3/4/2 4/3/2 6/5/2 5/6/2
f 5/6/3 6/5/3 8/7/3 7/8/3
f 7/8/4 8/7/4 10/9/4 9/10/4
f 9/10/5 10/9/5 12/11/5 11/12/5
f 11/12/6 12/11/6 14/13/6 13/14/6
f 13/14/7 14/13/7 16/15/7 15/16/7
f 15/16/8 16/15/8 18/17/8 17/18/8
f 17/18/9 18/17/9 20/19/9 19/20/9
f 19/20/10 20/19/10 22/21/10 21/22/10
f 21/22/11 22/21/11 24/23/11 23/24/11
f 23/24/12 24/23/12 26/25/12 25/26/12
f 25/26/13 26/25/13 28/27/13 27/28/13
f 27/28/14 28/27/14 30/29/14 29/30/14
f 29/30/15 30/29/15 32/31/15 31/32/15
f 31/32/16 32/31/16 34/33/16 33/34/16
f 33/34/17 34/33/17 36/35/17 35/36/17
f 35/36/18 36/35/18 38/37/18 37/38/18
f 37/38/19 38/37/19 40/39/19 39/40/19
f 39/40/20 40/39/20 42/41/20 41/42/20
f 41/42/21 42/41/21 44/43/21 43/44/21
f 43/44/22 44/43/22 46/45/22 45/46/22
f 45/46/23 46/45/23 48/47/23 47/48/23
f 47/48/24 48/47/24 50/49/24 49/50/24
f 49/50/25 50/49/25 52/51/25 51/52/25
f 51/52/26 52/51/26 54/53/26 53/54/26
f 53/54/27 54/53/27 56/55/27 55/56/27
f 55/56/28 56/55/28 58/57/28 57/58/28
f 57/58/29 58/57/29 60/59/29 59/60/29
f 59/60/30 60/59/30 62/61/30 61/62/30
f 2/63/31 64/64/31 96/65/31 65/66/31
f 61/62/32 62/61/32 64/64/32 63/67/32
f 63/67/33 64/64/33 2/63/33 1/68/33
f 19/20/34 21/22/34 107/69/34 106/70/34
f 22/21/31 20/19/31 74/71/31 75/72/31
f 40/39/31 38/37/31 83/73/31 84/74/31
f 58/57/31 56/55/31 92/75/31 93/76/31
f 14/13/31 12/11/31 70/77/31 71/78/31
f 32/31/31 30/29/31 79/79/31 80/80/31
f 50/49/31 48/47/31 88/81/31 89/82/31
f 6/5/31 4/3/31 66/83/31 67/84/31
f 24/23/31 22/21/31 75/72/31 76/85/31
f 42/41/31 40/39/31 84/74/31 85/86/31
f 60/59/31 58/57/31 93/76/31 94/87/31
f 16/15/31 14/13/31 71/78/31 72/88/31
f 34/33/31 32/31/31 80/80/31 81/89/31
f 52/51/31 50/49/31 89/82/31 90/90/31
f 8/7/31 6/5/31 67/84/31 68/91/31
f 26/25/31 24/23/31 76/85/31 77/92/31
f 44/43/31 42/41/31 85/86/31 86/93/31
f 62/61/31 60/59/31 94/87/31 95/94/31
f 18/17/31 16/15/31 72/88/31 73/95/31
f 36/35/31 34/33/31 81/89/31 82/96/31
f 54/53/31 52/51/31 90/90/31 91/97/31
f 10/9/31 8/7/31 68/91/31 69/98/31
f 28/27/31 26/25/31 77/92/31 78/99/31
f 46/45/31 44/43/31 86/93/31 87/100/31
f 64/64/31 62/61/31 95/94/31 96/65/31
f 20/19/31 18/17/31 73/95/31 74/71/31
f 38/37/31 36/35/31 82/96/31 83/73/31
f 56/55/31 54/53/31 91/97/31 92/75/31
f 12/11/31 10/9/31 69/98/31 70/77/31
f 30/29/31 28/27/31 78/99/31 79/79/31
f 48/47/31 46/45/31 87/100/31 88/81/31
f 4/3/31 2/2/31 65/101/31 66/83/31
f 37/38/34 39/40/34 116/102/34 115/103/34
f 55/56/34 57/58/34 125/104/34 124/105/34
f 11/12/34 13/14/34 103/106/34 102/107/34
f 29/30/34 31/32/34 112/108/34 111/109/34
f 47/48/34 49/50/34 121/110/34 120/111/34
f 3/4/34 5/6/34 99/112/34 98/113/34
f 21/22/34 23/24/34 108/114/34 107/69/34
f 39/40/34 41/42/34 117/115/34 116/102/34
f 57/58/34 59/60/34 126/116/34 125/104/34
f 13/14/34 15/16/34 104/117/34 103/106/34
f 31/32/34 33/34/34 113/118/34 112/108/34
f 49/50/34 51/52/34 122/119/34 121/110/34
f 5/6/34 7/8/34 100/120/34 99/112/34
f 23/24/34 25/26/34 109/121/34 108/114/34
f 41/42/34 43/44/34 118/122/34 117/115/34
f 59/60/34 61/62/34 127/123/34 126/116/34
f 15/16/34 17/18/34 105/124/34 104/117/34
f 33/34/34 35/36/34 114/125/34 113/118/34
f 51/52/34 53/54/34 123/126/34 122/119/34
f 7/8/34 9/10/34 101/127/34 100/120/34
f 25/26/34 27/28/34 110/128/34 109/121/34
f 43/44/34 45/46/34 119/129/34 118/122/34
f 61/62/34 63/67/34 128/130/34 127/123/34
f 17/18/34 19/20/34 106/70/34 105/124/34
f 35/36/34 37/38/34 115/103/34 114/125/34
f 53/54/34 55/56/34 124/105/34 123/126/34
f 9/10/34 11/12/34 102/107/34 101/127/34
f 27/28/34 29/30/34 111/109/34 110/128/34
f 45/46/34 47/48/34 120/111/34 119/129/34
f 1/1/34 3/4/34 98/113/34 97/131/34
f 63/67/34 1/68/34 97/132/34 128/130/34
f 81/89/33 80/80/33 112/108/33 113/118/33
f 82/133/1 81/134/1 113/135/1 114/136/1
f 83/137/35 82/133/35 114/136/35 115/138/35
f 84/139/3 83/137/3 115/138/3 116/140/3
f 85/141/4 84/139/4 116/140/4 117/142/4
f 86/143/5 85/141/5 117/142/5 118/144/5
f 87/145/6 86/143/6 118/144/6 119/146/6
f 88/147/7 87/145/7 119/146/7 120/148/7
f 89/149/8 88/147/8 120/148/8 121/150/8
f 90/151/9 89/149/9 121/150/9 122/152/9
f 91/153/10 90/151/10 122/152/10 123/154/10
f 92/155/11 91/153/11 123/154/11 124/156/11
f 93/157/12 92/155/12 124/156/12 125/158/12
f 94/159/13 93/157/13 125/158/13 126/160/13
f 95/161/14 94/159/14 126/160/14 127/162/14
f 96/163/15 95/161/15 127/162/15 128/164/15
f 65/165/16 96/163/16 128/164/16 97/166/16
f 66/167/17 65/165/17 97/166/17 98/168/17
f 67/169/18 66/167/18 98/168/18 99/170/18
f 68/171/19 67/169/19 99/170/19 100/172/19
f 69/173/20 68/171/20 100/172/20 101/174/20
f 70/175/21 69/173/21 101/174/21 102/176/21
f 71/177/22 70/175/22 102/176/22 103/178/22
f 72/179/23 71/177/23 103/178/23 104/180/23
f 73/181/24 72/179/24 104/180/24 105/182/24
f 74/183/25 73/181/25 105/182/25 106/184/25
f 75/185/26 74/183/26 106/184/26 107/186/26
f 76/187/27 75/185/27 107/186/27 108/188/27
f 77/189/28 76/187/28 108/188/28 109/190/28
f 78/191/29 77/189/29 109/190/29 110/192/29
f 79/193/30 78/191/30 110/192/30 111/194/30
f 80/195/32 79/193/32 111/194/32 112/196/32
