# Blender v2.83.0 OBJ File: 'kule.blend'
# www.blender.org
mtllib innerCircle.mtl
v 0.000000 0.082432 -7.819400
v -1.525489 0.082432 -7.669152
v -2.992355 0.082432 -7.224184
v -4.344226 0.082432 -6.501594
v -5.529151 0.082432 -5.529151
v -6.501594 0.082432 -4.344226
v -7.224184 0.082432 -2.992355
v -7.669152 0.082432 -1.525490
v -7.819400 0.082432 -0.000001
v -7.669153 0.082432 1.525488
v -7.224184 0.082432 2.992354
v -6.501594 0.082432 4.344226
v -5.529151 0.082432 5.529151
v -4.344226 0.082432 6.501594
v -2.992354 0.082432 7.224185
v -1.525487 0.082432 7.669153
v 0.000003 0.082432 7.819400
v 1.525492 0.082432 7.669152
v 2.992358 0.082432 7.224182
v 4.344230 0.082432 6.501591
v 5.529155 0.082432 5.529148
v 6.501597 0.082432 4.344222
v 7.224186 0.082432 2.992349
v 7.669154 0.082432 1.525483
v 7.819400 0.082432 -0.000008
v 7.669151 0.082432 -1.525497
v 7.224180 0.082432 -2.992363
v 6.501588 0.082432 -4.344234
v 5.529144 0.082432 -5.529158
v 4.344217 0.082432 -6.501600
v 2.992344 0.082432 -7.224188
v 1.525478 0.082432 -7.669155
v 0.000000 0.004238 -7.819400
v -1.525489 0.004238 -7.669152
v -2.992355 0.004238 -7.224184
v -4.344226 0.004241 -6.501594
v -5.529151 0.004238 -5.529151
v -6.501594 0.004241 -4.344226
v -7.224184 0.004238 -2.992355
v -7.669152 0.004238 -1.525490
v -7.819400 0.004241 -0.000001
v -7.669153 0.004238 1.525488
v -7.224184 0.004238 2.992354
v -6.501594 0.004241 4.344226
v -5.529151 0.004238 5.529151
v -4.344226 0.004241 6.501594
v -2.992354 0.004238 7.224185
v -1.525487 0.004238 7.669153
v 0.000003 0.004238 7.819400
v 1.525492 0.004241 7.669152
v 2.992358 0.004238 7.224182
v 4.344230 0.004241 6.501591
v 5.529155 0.004238 5.529148
v 6.501597 0.004241 4.344222
v 7.224186 0.004238 2.992349
v 7.669154 0.004238 1.525483
v 7.819400 0.004238 -0.000008
v 7.669151 0.004241 -1.525497
v 7.224180 0.004238 -2.992363
v 6.501588 0.004241 -4.344234
v 5.529144 0.004238 -5.529158
v 4.344217 0.004238 -6.501600
v 2.992344 0.004238 -7.224188
v 1.525478 0.004238 -7.669155
vt 0.257977 0.971547
vt 0.633120 0.509607
vt 0.722322 0.528453
vt 0.347179 0.990393
vt 0.980299 0.274623
vt 0.961463 0.322922
vt 0.000000 0.225377
vt 0.018836 0.177078
vt 0.985224 0.075768
vt 0.985224 0.034822
vt 0.990150 0.034822
vt 0.990149 0.075768
vt 0.985224 0.121265
vt 0.990149 0.121265
vt 0.985224 0.169565
vt 0.990149 0.169565
vt 0.985224 0.218810
vt 0.990149 0.218810
vt 0.985224 0.267110
vt 0.990149 0.267110
vt 0.985224 0.312607
vt 0.990149 0.312607
vt 0.985224 0.353553
vt 0.990149 0.353553
vt 0.985224 0.388375
vt 0.990149 0.388375
vt 1.000000 0.277785
vt 1.000000 0.318731
vt 0.995075 0.318731
vt 0.995075 0.277785
vt 1.000000 0.232288
vt 0.995075 0.232288
vt 1.000000 0.183989
vt 0.995075 0.183989
vt 1.000000 0.134743
vt 0.995075 0.134743
vt 1.000000 0.086443
vt 0.995075 0.086443
vt 1.000000 0.040946
vt 0.995075 0.040946
vt 1.000000 0.000000
vt 0.995075 0.000000
vt 0.995075 0.277785
vt 0.995075 0.318732
vt 0.990150 0.318732
vt 0.990150 0.277785
vt 0.995075 0.232288
vt 0.990150 0.232288
vt 0.995075 0.183989
vt 0.990150 0.183989
vt 0.995075 0.134743
vt 0.990150 0.134743
vt 0.995075 0.086443
vt 0.990150 0.086443
vt 0.995075 0.040946
vt 0.990150 0.040946
vt 0.995075 0.000000
vt 0.990150 0.000000
vt 0.980299 0.034822
vt 0.980299 0.000000
vt 0.985224 0.000000
vt 0.985224 0.034822
vt 0.980299 0.075768
vt 0.985224 0.075768
vt 0.980299 0.121265
vt 0.985224 0.121265
vt 0.980299 0.169565
vt 0.985224 0.169565
vt 0.980299 0.218811
vt 0.985224 0.218811
vt 0.980299 0.267110
vt 0.985224 0.267110
vt 0.980299 0.312607
vt 0.985224 0.312607
vt 0.980299 0.353554
vt 0.985224 0.353554
vt 0.980299 0.388375
vt 0.985224 0.388375
vt 0.985224 0.000000
vt 0.990150 0.000000
vt 0.441875 1.000000
vt 0.802601 0.555812
vt 0.538426 1.000000
vt 0.870873 0.590634
vt 0.633121 0.990393
vt 0.924514 0.631581
vt 0.722323 0.971547
vt 0.961463 0.677078
vt 0.802601 0.944188
vt 0.980299 0.725377
vt 0.870873 0.909366
vt 0.980299 0.774623
vt 0.924514 0.868419
vt 0.961463 0.822922
vt 0.538424 0.500000
vt 0.177698 0.944188
vt 0.441873 0.500000
vt 0.109426 0.909366
vt 0.347178 0.509607
vt 0.055785 0.868420
vt 0.257976 0.528453
vt 0.018836 0.822923
vt 0.177697 0.555813
vt 0.000000 0.774623
vt 0.109425 0.590635
vt 0.000000 0.725378
vt 0.055784 0.631581
vt 0.018836 0.677078
vt 0.000000 0.274623
vt 0.924514 0.368420
vt 0.018836 0.322922
vt 0.870873 0.409366
vt 0.055785 0.368419
vt 0.802601 0.444188
vt 0.109426 0.409366
vt 0.722322 0.471547
vt 0.177698 0.444188
vt 0.633121 0.490393
vt 0.257977 0.471547
vt 0.538425 0.500000
vt 0.347178 0.490393
vt 0.441874 0.500000
vt 0.980299 0.225377
vt 0.055785 0.131581
vt 0.961463 0.177078
vt 0.109426 0.090634
vt 0.924514 0.131581
vt 0.177697 0.055812
vt 0.870874 0.090634
vt 0.257977 0.028453
vt 0.802602 0.055812
vt 0.347178 0.009607
vt 0.722322 0.028453
vt 0.441874 0.000000
vt 0.633121 0.009607
vt 0.538425 0.000000
vn 0.0000 1.0000 0.0000
vn 0.0000 -1.0000 -0.0000
vn -0.0980 0.0000 -0.9952
vn -0.2903 0.0000 -0.9569
vn -0.4714 0.0000 -0.8819
vn -0.6344 0.0000 -0.7730
vn -0.7730 0.0000 -0.6344
vn -0.8819 0.0000 -0.4714
vn -0.9569 0.0000 -0.2903
vn -0.9952 0.0000 -0.0980
vn -0.9952 0.0000 0.0980
vn -0.9569 0.0000 0.2903
vn -0.8819 0.0000 0.4714
vn -0.7730 0.0000 0.6344
vn -0.6344 0.0000 0.7730
vn -0.4714 0.0000 0.8819
vn -0.2903 0.0000 0.9569
vn -0.0980 0.0000 0.9952
vn 0.0980 0.0000 0.9952
vn 0.2903 0.0000 0.9569
vn 0.4714 0.0000 0.8819
vn 0.6344 0.0000 0.7730
vn 0.7730 0.0000 0.6344
vn 0.8819 0.0000 0.4714
vn 0.9569 0.0000 0.2903
vn 0.9952 0.0000 0.0980
vn 0.9952 0.0000 -0.0980
vn 0.9569 0.0000 -0.2903
vn 0.8819 0.0000 -0.4714
vn 0.7730 0.0000 -0.6344
vn 0.6344 0.0000 -0.7730
vn 0.4714 0.0000 -0.8819
vn 0.2903 0.0000 -0.9569
vn 0.0980 0.0000 -0.9952
usemtl None
s off
f 6/1/1 21/2/1 22/3/1 5/4/1
f 38/5/2 37/6/2 54/7/2 53/8/2
f 2/9/3 1/10/3 33/11/3 34/12/3
f 3/13/4 2/9/4 34/12/4 35/14/4
f 4/15/5 3/13/5 35/14/5 36/16/5
f 5/17/6 4/15/6 36/16/6 37/18/6
f 6/19/7 5/17/7 37/18/7 38/20/7
f 7/21/8 6/19/8 38/20/8 39/22/8
f 8/23/9 7/21/9 39/22/9 40/24/9
f 9/25/10 8/23/10 40/24/10 41/26/10
f 10/27/11 9/28/11 41/29/11 42/30/11
f 11/31/12 10/27/12 42/30/12 43/32/12
f 12/33/13 11/31/13 43/32/13 44/34/13
f 13/35/14 12/33/14 44/34/14 45/36/14
f 14/37/15 13/35/15 45/36/15 46/38/15
f 15/39/16 14/37/16 46/38/16 47/40/16
f 16/41/17 15/39/17 47/40/17 48/42/17
f 17/43/18 16/44/18 48/45/18 49/46/18
f 18/47/19 17/43/19 49/46/19 50/48/19
f 19/49/20 18/47/20 50/48/20 51/50/20
f 20/51/21 19/49/21 51/50/21 52/52/21
f 21/53/22 20/51/22 52/52/22 53/54/22
f 22/55/23 21/53/23 53/54/23 54/56/23
f 23/57/24 22/55/24 54/56/24 55/58/24
f 24/59/25 23/60/25 55/61/25 56/62/25
f 25/63/26 24/59/26 56/62/26 57/64/26
f 26/65/27 25/63/27 57/64/27 58/66/27
f 27/67/28 26/65/28 58/66/28 59/68/28
f 28/69/29 27/67/29 59/68/29 60/70/29
f 29/71/30 28/69/30 60/70/30 61/72/30
f 30/73/31 29/71/31 61/72/31 62/74/31
f 31/75/32 30/73/32 62/74/32 63/76/32
f 32/77/33 31/75/33 63/76/33 64/78/33
f 1/10/34 32/79/34 64/80/34 33/11/34
f 4/81/1 5/4/1 22/3/1 23/82/1
f 3/83/1 4/81/1 23/82/1 24/84/1
f 2/85/1 3/83/1 24/84/1 25/86/1
f 1/87/1 2/85/1 25/86/1 26/88/1
f 32/89/1 1/87/1 26/88/1 27/90/1
f 31/91/1 32/89/1 27/90/1 28/92/1
f 30/93/1 31/91/1 28/92/1 29/94/1
f 20/95/1 21/2/1 6/1/1 7/96/1
f 19/97/1 20/95/1 7/96/1 8/98/1
f 18/99/1 19/97/1 8/98/1 9/100/1
f 17/101/1 18/99/1 9/100/1 10/102/1
f 16/103/1 17/101/1 10/102/1 11/104/1
f 15/105/1 16/103/1 11/104/1 12/106/1
f 14/107/1 15/105/1 12/106/1 13/108/1
f 55/109/2 54/7/2 37/6/2 36/110/2
f 56/111/2 55/109/2 36/110/2 35/112/2
f 57/113/2 56/111/2 35/112/2 34/114/2
f 58/115/2 57/113/2 34/114/2 33/116/2
f 59/117/2 58/115/2 33/116/2 64/118/2
f 60/119/2 59/117/2 64/118/2 63/120/2
f 61/121/2 60/119/2 63/120/2 62/122/2
f 39/123/2 38/5/2 53/8/2 52/124/2
f 40/125/2 39/123/2 52/124/2 51/126/2
f 41/127/2 40/125/2 51/126/2 50/128/2
f 42/129/2 41/127/2 50/128/2 49/130/2
f 43/131/2 42/129/2 49/130/2 48/132/2
f 44/133/2 43/131/2 48/132/2 47/134/2
f 45/135/2 44/133/2 47/134/2 46/136/2
