# Blender v2.83.0 OBJ File: 'kule.blend'
# www.blender.org
mtllib outerCircle.mtl
v 0.000000 0.000000 -11.498069
v -2.243162 0.000000 -11.277136
v -4.400121 0.000000 -10.622830
v -6.387985 0.000000 -9.560294
v -8.130363 0.000000 -8.130363
v -9.560295 0.000000 -6.387984
v -10.622830 0.000000 -4.400120
v -11.277136 0.000000 -2.243162
v -11.498069 0.000000 -0.000001
v -11.277137 0.000000 2.243160
v -10.622830 0.000000 4.400119
v -9.560295 0.000000 6.387984
v -8.130363 0.000000 8.130363
v -6.387984 0.000000 9.560295
v -4.400119 0.000000 10.622831
v -2.243159 0.000000 11.277137
v 0.000004 0.000000 11.498069
v 2.243167 0.000000 11.277136
v 4.400126 0.000000 10.622828
v 6.387990 0.000000 9.560291
v 8.130368 0.000000 8.130358
v 9.560300 0.000000 6.387978
v 10.622834 0.000000 4.400112
v 11.277139 0.000000 2.243152
v 11.498069 0.000000 -0.000011
v 11.277134 0.000000 -2.243174
v 10.622826 0.000000 -4.400132
v 9.560287 0.000000 -6.387997
v 8.130352 0.000000 -8.130373
v 6.387972 0.000000 -9.560304
v 4.400105 0.000000 -10.622837
v 2.243145 0.000000 -11.277140
v 0.000000 -0.114981 -11.498069
v -2.243162 -0.114981 -11.277136
v -4.400121 -0.114981 -10.622830
v -6.387985 -0.114977 -9.560294
v -8.130363 -0.114981 -8.130363
v -9.560295 -0.114977 -6.387984
v -10.622830 -0.114981 -4.400120
v -11.277136 -0.114981 -2.243162
v -11.498069 -0.114977 -0.000001
v -11.277137 -0.114981 2.243160
v -10.622830 -0.114981 4.400119
v -9.560295 -0.114977 6.387984
v -8.130363 -0.114981 8.130363
v -6.387984 -0.114977 9.560295
v -4.400119 -0.114981 10.622831
v -2.243159 -0.114981 11.277137
v 0.000004 -0.114981 11.498069
v 2.243167 -0.114977 11.277136
v 4.400126 -0.114981 10.622828
v 6.387990 -0.114977 9.560291
v 8.130368 -0.114981 8.130358
v 9.560300 -0.114977 6.387978
v 10.622834 -0.114981 4.400112
v 11.277139 -0.114981 2.243152
v 11.498069 -0.114981 -0.000011
v 11.277134 -0.114977 -2.243174
v 10.622826 -0.114981 -4.400132
v 9.560287 -0.114977 -6.387997
v 8.130352 -0.114981 -8.130373
v 6.387972 -0.114981 -9.560304
v 4.400105 -0.114981 -10.622837
v 2.243145 -0.114981 -11.277140
vt 0.909366 0.485061
vt 0.868420 0.514938
vt 0.677077 0.010492
vt 0.725377 0.000000
vt 0.822923 0.535518
vt 0.631580 0.031071
vt 0.007536 0.640407
vt 0.007536 0.590723
vt 0.010049 0.590723
vt 0.010049 0.640407
vt 0.007536 0.693151
vt 0.010049 0.693151
vt 0.007536 0.746928
vt 0.010048 0.746928
vt 0.007536 0.799672
vt 0.010049 0.799672
vt 0.007536 0.849356
vt 0.010048 0.849356
vt 0.002512 0.590724
vt 0.002512 0.546010
vt 0.005024 0.546010
vt 0.005024 0.590724
vt 0.002512 0.640407
vt 0.005024 0.640407
vt 0.002512 0.693151
vt 0.005024 0.693151
vt 0.002512 0.746929
vt 0.005024 0.746929
vt 0.002512 0.799672
vt 0.005024 0.799672
vt 0.002512 0.849356
vt 0.005024 0.849356
vt 0.002512 0.894070
vt 0.005024 0.894070
vt 0.002512 0.932097
vt 0.005024 0.932097
vt 0.002512 0.961974
vt 0.005024 0.961974
vt 0.002512 0.970123
vt 0.002512 1.000000
vt 0.000000 1.000000
vt 0.000000 0.970123
vt 0.002512 0.932097
vt 0.000000 0.932097
vt 0.002512 0.887383
vt 0.000000 0.887383
vt 0.002512 0.837699
vt 0.000000 0.837699
vt 0.002512 0.784955
vt 0.000000 0.784955
vt 0.002512 0.731178
vt 0.000000 0.731178
vt 0.002512 0.678434
vt 0.000000 0.678434
vt 0.002512 0.628750
vt 0.000000 0.628750
vt 0.002512 0.584036
vt 0.000000 0.584036
vt 0.002512 0.546010
vt 0.000000 0.546010
vt 0.007536 0.849356
vt 0.007536 0.894070
vt 0.005024 0.894070
vt 0.005024 0.849356
vt 0.007536 0.799673
vt 0.005024 0.799673
vt 0.007536 0.746929
vt 0.005024 0.746929
vt 0.007536 0.693151
vt 0.005024 0.693151
vt 0.007536 0.640407
vt 0.005024 0.640407
vt 0.007536 0.590724
vt 0.005024 0.590724
vt 0.007536 0.546010
vt 0.005024 0.546010
vt 0.010049 0.546010
vt 0.944188 0.447035
vt 0.774623 0.000000
vt 0.971547 0.402321
vt 0.822922 0.010491
vt 0.990393 0.352637
vt 0.868419 0.031071
vt 1.000000 0.299893
vt 0.909366 0.060948
vt 1.000000 0.246116
vt 0.944188 0.098974
vt 0.990393 0.193372
vt 0.971547 0.143688
vt 0.590634 0.060948
vt 0.774623 0.546009
vt 0.555812 0.098975
vt 0.725378 0.546010
vt 0.528453 0.143689
vt 0.677078 0.535518
vt 0.509607 0.193373
vt 0.631581 0.514939
vt 0.500000 0.246117
vt 0.590635 0.485062
vt 0.500000 0.299894
vt 0.555813 0.447035
vt 0.509607 0.352638
vt 0.528453 0.402321
vt 0.000000 0.299893
vt 0.000000 0.246116
vt 0.500000 0.246116
vt 0.500000 0.299893
vt 0.490393 0.193372
vt 0.009607 0.193373
vt 0.471547 0.143688
vt 0.028453 0.143689
vt 0.444188 0.098974
vt 0.055812 0.098975
vt 0.409366 0.060948
vt 0.090634 0.060948
vt 0.368419 0.031071
vt 0.131580 0.031071
vt 0.322922 0.010491
vt 0.177078 0.010492
vt 0.274623 0.000000
vt 0.225377 0.000000
vt 0.009607 0.352637
vt 0.490393 0.352637
vt 0.028453 0.402321
vt 0.471547 0.402321
vt 0.055812 0.447035
vt 0.444188 0.447035
vt 0.090634 0.485061
vt 0.409366 0.485061
vt 0.131581 0.514938
vt 0.368419 0.514938
vt 0.177078 0.535518
vt 0.322922 0.535518
vt 0.225377 0.546010
vt 0.274623 0.546010
vn 0.0000 1.0000 0.0000
vn -0.0980 0.0000 -0.9952
vn -0.2903 0.0000 -0.9569
vn -0.4714 0.0000 -0.8819
vn -0.6344 0.0000 -0.7730
vn -0.7730 0.0000 -0.6344
vn -0.8819 0.0000 -0.4714
vn -0.9569 0.0000 -0.2903
vn -0.9952 0.0000 -0.0980
vn -0.9952 0.0000 0.0980
vn -0.9569 0.0000 0.2903
vn -0.8819 0.0000 0.4714
vn -0.7730 0.0000 0.6344
vn -0.6344 0.0000 0.7730
vn -0.4714 0.0000 0.8819
vn -0.2903 0.0000 0.9569
vn -0.0980 0.0000 0.9952
vn 0.0980 0.0000 0.9952
vn 0.2903 0.0000 0.9569
vn 0.4714 0.0000 0.8819
vn 0.6344 0.0000 0.7730
vn 0.7730 0.0000 0.6344
vn 0.8819 0.0000 0.4714
vn 0.9569 0.0000 0.2903
vn 0.9952 0.0000 0.0980
vn 0.9952 0.0000 -0.0980
vn 0.9569 0.0000 -0.2903
vn 0.8819 0.0000 -0.4714
vn 0.7730 0.0000 -0.6344
vn 0.6344 0.0000 -0.7730
vn 0.4714 0.0000 -0.8819
vn 0.2903 0.0000 -0.9569
vn 0.0980 0.0000 -0.9952
vn 0.0000 -1.0000 -0.0000
usemtl None
s off
f 32/1/1 1/2/1 18/3/1 19/4/1
f 2/5/1 17/6/1 18/3/1 1/2/1
f 2/7/2 1/8/2 33/9/2 34/10/2
f 3/11/3 2/7/3 34/10/3 35/12/3
f 4/13/4 3/11/4 35/12/4 36/14/4
f 5/15/5 4/13/5 36/14/5 37/16/5
f 6/17/6 5/15/6 37/16/6 38/18/6
f 7/19/7 6/20/7 38/21/7 39/22/7
f 8/23/8 7/19/8 39/22/8 40/24/8
f 9/25/9 8/23/9 40/24/9 41/26/9
f 10/27/10 9/25/10 41/26/10 42/28/10
f 11/29/11 10/27/11 42/28/11 43/30/11
f 12/31/12 11/29/12 43/30/12 44/32/12
f 13/33/13 12/31/13 44/32/13 45/34/13
f 14/35/14 13/33/14 45/34/14 46/36/14
f 15/37/15 14/35/15 46/36/15 47/38/15
f 16/39/16 15/40/16 47/41/16 48/42/16
f 17/43/17 16/39/17 48/42/17 49/44/17
f 18/45/18 17/43/18 49/44/18 50/46/18
f 19/47/19 18/45/19 50/46/19 51/48/19
f 20/49/20 19/47/20 51/48/20 52/50/20
f 21/51/21 20/49/21 52/50/21 53/52/21
f 22/53/22 21/51/22 53/52/22 54/54/22
f 23/55/23 22/53/23 54/54/23 55/56/23
f 24/57/24 23/55/24 55/56/24 56/58/24
f 25/59/25 24/57/25 56/58/25 57/60/25
f 26/61/26 25/62/26 57/63/26 58/64/26
f 27/65/27 26/61/27 58/64/27 59/66/27
f 28/67/28 27/65/28 59/66/28 60/68/28
f 29/69/29 28/67/29 60/68/29 61/70/29
f 30/71/30 29/69/30 61/70/30 62/72/30
f 31/73/31 30/71/31 62/72/31 63/74/31
f 32/75/32 31/73/32 63/74/32 64/76/32
f 1/8/33 32/75/33 64/77/33 33/9/33
f 31/78/1 32/1/1 19/4/1 20/79/1
f 30/80/1 31/78/1 20/79/1 21/81/1
f 29/82/1 30/80/1 21/81/1 22/83/1
f 28/84/1 29/82/1 22/83/1 23/85/1
f 27/86/1 28/84/1 23/85/1 24/87/1
f 26/88/1 27/86/1 24/87/1 25/89/1
f 16/90/1 17/6/1 2/5/1 3/91/1
f 15/92/1 16/90/1 3/91/1 4/93/1
f 14/94/1 15/92/1 4/93/1 5/95/1
f 13/96/1 14/94/1 5/95/1 6/97/1
f 12/98/1 13/96/1 6/97/1 7/99/1
f 11/100/1 12/98/1 7/99/1 8/101/1
f 10/102/1 11/100/1 8/101/1 9/103/1
f 34/104/34 33/105/34 50/106/34 49/107/34
f 51/108/34 50/106/34 33/105/34 64/109/34
f 52/110/34 51/108/34 64/109/34 63/111/34
f 53/112/34 52/110/34 63/111/34 62/113/34
f 54/114/34 53/112/34 62/113/34 61/115/34
f 55/116/34 54/114/34 61/115/34 60/117/34
f 56/118/34 55/116/34 60/117/34 59/119/34
f 57/120/34 56/118/34 59/119/34 58/121/34
f 35/122/34 34/104/34 49/107/34 48/123/34
f 36/124/34 35/122/34 48/123/34 47/125/34
f 37/126/34 36/124/34 47/125/34 46/127/34
f 38/128/34 37/126/34 46/127/34 45/129/34
f 39/130/34 38/128/34 45/129/34 44/131/34
f 40/132/34 39/130/34 44/131/34 43/133/34
f 41/134/34 40/132/34 43/133/34 42/135/34
