# Blender v2.83.0 OBJ File: 'kule.blend'
# www.blender.org
mtllib platform_cubuk.mtl
v 6.976160 7.028255 0.388246
v 6.976160 7.028255 -0.048842
v 6.976160 7.465343 0.388246
v 6.976160 7.465343 -0.048842
v 10.882607 7.465343 0.388246
v 10.882607 7.028255 0.388246
v 10.882607 7.028255 -0.048843
v 10.882607 7.465343 -0.048843
vt 1.000000 0.306317
vt 0.800000 0.306317
vt 0.800000 0.153158
vt 1.000000 0.153158
vt 0.800000 0.153158
vt 0.800000 0.000000
vt 1.000000 0.000000
vt 1.000000 0.153158
vt 0.200000 0.000000
vt 0.400000 0.000000
vt 0.400000 1.000000
vt 0.200000 1.000000
vt 0.600000 1.000000
vt 0.400000 1.000000
vt 0.400000 0.000000
vt 0.600000 0.000000
vt 0.600000 0.000000
vt 0.800000 0.000000
vt 0.800000 1.000000
vt 0.600000 1.000000
vt 0.200000 1.000000
vt 0.000000 1.000000
vt 0.000000 0.000000
vt 0.200000 0.000000
vn -1.0000 0.0000 0.0000
vn 1.0000 0.0000 0.0000
vn 0.0000 1.0000 0.0000
vn -0.0000 -1.0000 0.0000
vn -0.0000 0.0000 -1.0000
vn 0.0000 0.0000 1.0000
usemtl None
s off
f 1/1/1 3/2/1 4/3/1 2/4/1
f 6/5/2 7/6/2 8/7/2 5/8/2
f 4/9/3 3/10/3 5/11/3 8/12/3
f 1/13/4 2/14/4 7/15/4 6/16/4
f 2/17/5 4/18/5 8/19/5 7/20/5
f 3/21/6 1/22/6 6/23/6 5/24/6
