# Blender v2.83.0 OBJ File: 'kule.blend'
# www.blender.org
mtllib platform1.mtl
v 8.134306 0.552459 1.720801
v 10.667407 0.552459 1.720801
v 8.134306 0.552459 -1.381621
v 10.667407 0.552459 -1.381621
v 7.947349 0.546178 0.471945
v 7.947349 0.546178 -0.132764
v 6.978362 0.083239 0.471945
v 6.978362 0.083239 -0.132764
v 8.134306 0.749513 1.720801
v 10.667407 0.749513 1.720801
v 8.134306 0.749513 -1.381621
v 10.667407 0.749513 -1.381621
v 7.947349 0.750789 0.471945
v 7.947349 0.750789 -0.132764
v 6.978362 0.666860 0.471945
v 6.978362 0.666860 -0.132764
v 8.134306 0.664093 1.720801
v 7.947349 0.662093 -0.132764
v 7.947349 0.662093 0.471945
v 10.667407 0.664093 -1.381621
v 10.667407 0.664093 1.720801
v 8.134306 0.664093 -1.381621
vt 0.582791 0.080567
vt 0.582791 0.500666
vt 0.568207 0.500666
vt 0.568207 0.080567
vt 0.568187 0.080596
vt 0.367185 0.049435
vt 0.269295 0.049435
vt 0.068293 0.080838
vt 0.433022 0.692460
vt 0.599021 0.692460
vt 0.599021 0.792792
vt 0.433022 0.792792
vt 0.068207 0.080645
vt 0.068207 0.500913
vt 0.568197 0.500913
vt 0.568209 0.080471
vt 0.068209 0.080471
vt 0.269480 0.049451
vt 0.366937 0.049451
vt 0.656168 0.352225
vt 0.656168 0.452558
vt 0.500000 0.452558
vt 0.500000 0.352225
vt 0.432413 0.792773
vt 0.599723 0.792651
vt 0.558697 0.876216
vt 0.424264 0.809370
vt 0.298729 0.019232
vt 0.500000 0.019564
vt 0.500000 0.033737
vt 0.298729 0.033949
vt 0.568345 0.486818
vt 0.068144 0.486818
vt 0.068144 0.500991
vt 0.568345 0.500991
vt 0.599021 0.806334
vt 0.696478 0.806334
vt 0.696478 0.903167
vt 0.599021 0.903167
vt 0.000000 0.019564
vt 0.201271 0.019232
vt 0.201271 0.033949
vt 0.000000 0.033737
vt 0.568209 0.500754
vt 0.068209 0.500754
vt 0.052846 0.501021
vt 0.052846 0.079944
vt 0.067464 0.079944
vt 0.067464 0.501021
vt 0.600356 0.692931
vt 0.433014 0.692815
vt 0.424863 0.676215
vt 0.559319 0.609352
vt 0.033742 0.501021
vt 0.033742 0.079944
vt 0.000000 0.001042
vt 0.201271 0.000000
vt 0.568345 0.468296
vt 0.068144 0.468296
vt 0.298729 0.000000
vt 0.500000 0.001042
vt 0.601851 0.080567
vt 0.601851 0.500666
vn 0.0000 0.0000 1.0000
vn 0.0336 -0.9994 0.0000
vn 0.4311 -0.9023 0.0000
vn 0.0000 -1.0000 0.0000
vn 0.0068 1.0000 0.0000
vn 0.0049 1.0000 0.0000
vn 0.0000 0.0000 -1.0000
vn -0.9890 0.0000 0.1481
vn 1.0000 0.0000 0.0000
vn -1.0000 0.0000 0.0000
vn -0.9890 0.0000 -0.1481
vn 0.0000 1.0000 0.0000
usemtl (null)
s off
f 17/1/1 21/2/1 10/3/1 9/4/1
f 1/5/2 5/6/2 6/7/2 3/8/2
f 5/9/3 7/10/3 8/11/3 6/12/3
f 1/5/4 3/13/4 4/14/4 2/15/4
f 9/16/5 11/17/5 14/18/5 13/19/5
f 19/20/6 18/21/6 16/22/6 15/23/6
f 6/24/7 8/25/7 16/26/7 18/27/7
f 19/28/8 17/29/8 9/30/8 13/31/8
f 21/32/9 20/33/9 12/34/9 10/35/9
f 8/36/10 7/37/10 15/38/10 16/39/10
f 22/40/11 18/41/11 14/42/11 11/43/11
f 9/16/12 10/44/12 12/45/12 11/17/12
f 20/46/7 22/47/7 11/48/7 12/49/7
f 7/50/1 5/51/1 19/52/1 15/53/1
f 13/31/10 14/42/10 18/41/10 19/28/10
f 4/54/7 3/55/7 22/47/7 20/46/7
f 3/56/11 6/57/11 18/41/11 22/40/11
f 2/58/9 4/59/9 20/33/9 21/32/9
f 5/60/8 1/61/8 17/29/8 19/28/8
f 1/62/1 2/63/1 21/2/1 17/1/1
