# Blender v2.83.0 OBJ File: 'player.blend'
# www.blender.org
mtllib player.mtl
o Cone
v 0.000000 0.476394 -1.000000
v 0.707107 0.476394 -0.707107
v 1.000000 0.476394 0.000000
v 0.707107 0.476394 0.707107
v -0.000000 0.476394 1.000000
v -0.707107 0.476394 0.707107
v -1.000000 0.476394 -0.000000
v -0.707107 0.476394 -0.707107
v 0.000000 2.476394 0.000000
v 0.000000 0.309850 -1.000000
v 0.707107 0.309850 -0.707107
v 1.000000 0.309850 0.000000
v 0.707107 0.309850 0.707107
v -0.000000 0.309850 1.000000
v -0.707107 0.309850 0.707107
v -1.000000 0.309850 -0.000000
v -0.707107 0.309850 -0.707107
vt 0.250000 0.490000
vt 0.250000 0.250000
vt 0.419706 0.419706
vt 0.490000 0.250000
vt 0.419706 0.080294
vt 0.250000 0.010000
vt 0.080294 0.080294
vt 0.010000 0.250000
vt 0.080294 0.419706
vt 0.250000 0.010000
vt 0.419706 0.080294
vt 0.750000 0.490000
vt 0.919706 0.419706
vt 0.990000 0.250000
vt 0.919706 0.080294
vt 0.750000 0.010000
vt 0.580294 0.080294
vt 0.510000 0.250000
vt 0.580294 0.419706
vt 0.490000 0.250000
vt 0.419706 0.419706
vt 0.250000 0.490000
vt 0.080294 0.419706
vt 0.010000 0.250000
vt 0.080294 0.080294
vn 0.3474 0.4194 -0.8387
vn 0.8387 0.4194 -0.3474
vn 0.8387 0.4194 0.3474
vn 0.3474 0.4194 0.8387
vn -0.3474 0.4194 0.8387
vn -0.8387 0.4194 0.3474
vn -0.8387 0.4194 -0.3474
vn -0.3474 0.4194 -0.8387
vn 0.3827 0.0000 0.9239
vn 0.0000 -1.0000 0.0000
vn 0.9239 0.0000 0.3827
vn 0.9239 0.0000 -0.3827
vn -0.3827 0.0000 -0.9239
vn -0.9239 0.0000 -0.3827
vn -0.9239 0.0000 0.3827
vn 0.3827 0.0000 -0.9239
vn -0.3827 0.0000 0.9239
usemtl None
s off
f 1/1/1 9/2/1 2/3/1
f 2/3/2 9/2/2 3/4/2
f 3/4/3 9/2/3 4/5/3
f 4/5/4 9/2/4 5/6/4
f 5/6/5 9/2/5 6/7/5
f 6/7/6 9/2/6 7/8/6
f 7/8/7 9/2/7 8/9/7
f 8/9/8 9/2/8 1/1/8
f 4/5/9 5/6/9 14/10/9 13/11/9
f 10/12/10 11/13/10 12/14/10 13/15/10 14/16/10 15/17/10 16/18/10 17/19/10
f 3/4/11 4/5/11 13/11/11 12/20/11
f 2/3/12 3/4/12 12/20/12 11/21/12
f 8/9/13 1/1/13 10/22/13 17/23/13
f 7/8/14 8/9/14 17/23/14 16/24/14
f 6/7/15 7/8/15 16/24/15 15/25/15
f 1/1/16 2/3/16 11/21/16 10/22/16
f 5/6/17 6/7/17 15/25/17 14/10/17
